<?xml version="1.0" encoding="utf-8"?>
<!DOCTYPE svg PUBLIC "-//W3C//DTD SVG 1.0//EN" "http://www.w3.org/TR/2001/REC-SVG-20010904/DTD/svg10.dtd">
<svg version="1.0" id="Layer_1" xmlns="http://www.w3.org/2000/svg" xmlns:xlink="http://www.w3.org/1999/xlink" x="0px" y="0px"
	 width="24px" height="26px" viewBox="0 0 24 26" style=""
	 xml:space="preserve">
<path style="fill:#10b2fe;" d="M3.449,6.193C3.387,6.218,3.223,6.38,3.182,6.439c-0.062,0.09-0.174,0.414-0.256,0.512
	C2.834,7.062,2.613,7.068,2.494,7.199c-0.217,0.24-0.381,0.547-0.613,0.854C1.844,8.099,1.762,8.431,1.762,8.539v0.699
	c0,0.084-0.162,0.326-0.186,0.412c-0.015,0.047,0.016,0.203,0,0.248c-0.035,0.104-0.184,0.404-0.254,0.508
	c-0.061,0.088-0.203,0.105-0.291,0.172c-0.09,0.07-0.357,0.303-0.373,0.381c-0.066,0.363-0.15,0.686-0.133,1.117l0.262,0.611
	c-0.059,0.318-0.113,0.693-0.133,1.076l-0.621,0.664c-0.033,0.035-0.054,0.322,0,0.367c0.287,0.256,0.689,0.445,0.924,0.787
	L1.26,16.24c0.068,0.512-0.041,0.949-0.303,1.184c-0.037,0.033-0.195-0.012-0.232,0.008c-0.129,0.072-0.242,0.199-0.322,0.332
	c-0.027,0.047,0,0.26,0,0.332c0.131,0.074,0.262,0.154,0.395,0.254c0.107,0.08,0.189-0.096,0.348-0.055
	c0.312,0.08,0.631,0.168,0.863,0.326v0.828l-0.123,0.578c0.061,0.203,0.104,0.424,0.133,0.652c0.005,0.062,0.176,0.238,0.255,0.291
	c0.112,0.072,0.313,0.109,0.354,0.291l-0.754,0.691l-0.016,0.453l0.911-0.959c0.365-0.043,0.564,0.18,0.73,0.436
	c0.022,0.242,0.062,0.516,0.133,0.785c0.033,0.129,0.201,0.215,0.355,0.361c0.439-0.143,1.021-0.127,1.449,0.248
	c0.102,0.158,0.193,0.523,0.328,0.797c0.057,0.117,0.318,0.391,0.404,0.398l1.644,0.123c0.11,0.008,0.478,0.049,0.558,0.127
	l0.84,0.836c0.176,0.35,0.467,0.604,0.736,0.795c0.422-0.174,0.73-0.406,1.068-0.654c0.186-0.023,0.393-0.029,0.609-0.117
	c0.102-0.041,0.225,0.248,0.34,0.248l0.871,0.006l0.621,0.109l0.596,0.137c0.215,0.016,0.393-0.117,0.553-0.195l0.5-0.484
	c0.133-0.107,0.32-0.162,0.523-0.182l0.695-0.652c0.363,0.07,0.727,0.188,1.213,0.143c0.029-0.004,0.139-0.08,0.166-0.109
	c0.354-0.377,0.619-0.828,1.01-1.311l0.715-0.49c0.393-0.229,0.947-0.279,1.318-0.467c0.129-0.068,0.355-0.33,0.371-0.377
	c0.115-0.348,0.113-0.795,0.09-1.172l0.318-0.678c0.018-0.041-0.043-0.256,0-0.287c0.219-0.162,0.506-0.297,0.697-0.574
	c0.076-0.262,0.326-0.445,0.607-0.549L22.751,18c-0.006-0.055-0.223-0.215-0.236-0.275c-0.051-0.225-0.129-0.453-0.135-0.646
	c0.188-0.338,0.426-0.576,0.754-0.758c-0.004,0.002,0.121,0.014,0.158,0c0.094-0.033,0.154-0.129,0.193-0.217
	c0.025-0.057,0.029-0.289,0.014-0.359c-0.021-0.086-0.127-0.35-0.186-0.412l-0.438-0.457c-0.002-0.361,0.133-0.604,0.332-0.789
	c0.373-0.021,0.617-0.207,0.781-0.469c0.008-0.012,0.014-0.146,0.002-0.162c-0.125-0.178-0.279-0.336-0.543-0.416
	c-0.227,0.049-0.465,0.002-0.562-0.18c-0.119-0.223-0.201-0.479-0.248-0.74l-0.004-0.773c0.307-0.162,0.512-0.428,0.74-0.678v-0.564
	c0-0.088-0.141-0.199-0.213-0.191c-0.363,0.039-0.652-0.07-0.953-0.162c-0.072-0.021-0.328-0.256-0.381-0.35
	c-0.129-0.232-0.215-0.52-0.301-0.799c0.086-0.281,0.164-0.572,0.311-0.801c0.129-0.201,0.379-0.266,0.57-0.428
	c-0.168-0.012-0.342,0.062-0.443,0.031c-0.213-0.066-0.414-0.137-0.602-0.223h-1c-0.119,0-0.287-0.209-0.305-0.342
	c-0.033-0.268-0.143-0.531-0.223-0.76c0.172-0.139,0.303-0.352,0.25-0.637c-0.018-0.102-0.09-0.307-0.18-0.293
	c-0.459,0.066-0.984,0.141-1.43,0.047c-0.086-0.018-0.34-0.127-0.412-0.18c-0.189-0.135-0.277-0.365-0.367-0.629
	c-0.012-0.037,0.027-0.277-0.004-0.338c-0.045-0.092-0.279-0.348-0.369-0.391l-0.658-0.309h-0.904
	c-0.439-0.207-0.922-0.389-1.461-0.518c-0.117-0.027-0.312-0.193-0.312-0.309l0.002-0.984c0.033-0.457,0.166-0.85,0.236-1.277
	c0.012-0.084,0.027-0.283-0.039-0.262c-0.062,0.02-0.184,0.178-0.191,0.221c-0.062,0.459-0.111,0.949-0.139,1.434
	c-0.006,0.098-0.123,0.156-0.207,0.205c-0.027,0.018-0.174-0.012-0.197,0.008l-0.906,0.865c-0.041,0.041-0.332,0.016-0.41-0.002
	c-0.42-0.094-0.801-0.273-1.135-0.396l-0.883,0.398H9.445c-0.363,0.16-0.691,0.35-1.004,0.588C8.367,3.376,8.199,3.457,8.152,3.425
	C7.811,3.21,7.486,3.087,7.281,2.865C7.254,2.833,7.068,2.833,7.022,2.857c-0.13,0.07-0.321,0.217-0.321,0.332v0.656
	c0,0.107-0.066,0.471-0.117,0.508C6.328,4.541,6.111,4.757,5.791,4.81c-0.432,0.072-0.736-0.072-1.1-0.125
	c-0.23,0.348-0.361,0.756-0.505,1.1C4.135,5.914,3.871,6.144,3.779,6.193C3.727,6.218,3.506,6.169,3.449,6.193z"/>
</svg>
